P1
8 260

# A
00000000
00011000
00111100
01100110
01100110
01111110
01100110
01100110
01100110
00000000

# B
00000000
01111100
01111110
01100110
01111110
01100110
01100110
01111110
01111100
00000000

# C
00000000
00111110
01111110
01110000
01100000
01100000
01110000
01111110
00111110
00000000

# D
00000000
01111100
01111110
01100110
01100110
01100110
01100110
01111110
01111100
00000000

# E
00000000
01111110
01111110
01100000
01111110
01111110
01100000
01111110
01111110
00000000

# F
00000000
01111110
01111110
01100000
01111110
01111110
01100000
01100000
01100000
00000000

# G
00000000
00111110
01111110
01100000
01101110
01101110
01100110
01111110
00111110
00000000

# H
00000000
01100110
01100110
01100110
01111110
01111110
01100110
01100110
01100110
00000000

# I
00000000
01111110
01111110
00011000
00011000
00011000
00011000
01111110
01111110
00000000

# J
00000000
00000110
00000110
00000110
00000110
01100110
01100110
01111110
00111100
00000000

# K
00000000
01100110
01101110
01111100
01111000
01111000
01111100
01101110
01100110
00000000

# L
00000000
01100000
01100000
01100000
01100000
01100000
01100000
01111110
01111110
00000000

# M
00000000
01100110
01111110
01111110
01111110
01100110
01100110
01100110
01100110
00000000

# N
00000000
01100110
01110110
01110110
01111110
01101110
01101110
01100110
01100110
00000000

# O
00000000
00111100
01111110
01100110
01100110
01100110
01100110
01111110
00111100
00000000

# P
00000000
01111100
01111110
01100110
01111110
01111100
01100000
01100000
01100000
00000000

# Q
00000000
00111100
01111110
01100110
01100110
01100110
01111110
00111100
00000110
00000000

# R
00000000
01111100
01111110
01100110
01111110
01111100
01111000
01101100
01100110
00000000

# S
00000000
00111110
01111110
01110000
01111100
00111110
00001110
01111110
01111100
00000000

# T
00000000
01111110
01111110
00011000
00011000
00011000
00011000
00011000
00011000
00000000

# U
00000000
01100110
01100110
01100110
01100110
01100110
01100110
01111110
00111100
00000000

# V
00000000
01100110
01100110
01100110
01100110
00111100
00111100
00011000
00011000
00000000

# W
00000000
01011010
01011010
01011010
01011010
01011010
01111110
01111110
01111110
00000000

# X
00000000
01100110
01100110
00111100
00011000
00011000
00111100
01100110
01100110
00000000

# Y
00000000
01100110
01100110
00111100
00111100
00011000
00011000
00011000
00011000
00000000

# Z
00000000
01111110
01111110
00001110
00011100
00111000
01110000
01111110
01111110
00000000